<?xml version="1.0" encoding="iso-8859-1"?>
<!-- Uploaded to: SVG Repo, www.svgrepo.com, Generator: SVG Repo Mixer Tools -->
<svg version="1.1" id="Layer_1" xmlns="http://www.w3.org/2000/svg" xmlns:xlink="http://www.w3.org/1999/xlink" 
	 viewBox="0 0 508 508" xml:space="preserve">
<g>
	<path style="fill:#56ACE0;" d="M366.9,479.8h31.3v-75.2c0-7.8,6.3-14.1,14.1-14.1s14.1,6.3,14.1,14.1v75.2h31.3V356.9H367v122.9
		H366.9z"/>
	<path style="fill:#56ACE0;" d="M412.3,97.5c19.1,0,34.6-15.5,34.6-34.6s-15.5-34.6-34.6-34.6s-34.6,15.5-34.6,34.6
		S393.2,97.5,412.3,97.5z"/>
</g>
<path style="fill:#FFC10D;" d="M479.8,199.1c0-13.6-10.5-24.7-23.8-25.8l-30.9,67.5c-5,11-20.6,11-25.7,0l-30.9-67.5
	c-13.3,1.1-23.8,12.2-23.8,25.8v129.5h135V199.1H479.8z"/>
<rect x="28.2" y="351.3" style="fill:#56ACE0;" width="56.4" height="128.5"/>
<rect x="183.4" y="246" style="fill:#FFFFFF;" width="56.4" height="233.8"/>
<g>
	<path style="fill:#194F82;" d="M412.3,125.7c34.7,0,62.9-28.2,62.9-62.8S446.9,0,412.3,0s-62.9,28.2-62.9,62.8
		S377.6,125.7,412.3,125.7z M412.3,28.2c19.1,0,34.6,15.5,34.6,34.6s-15.5,34.6-34.6,34.6s-34.6-15.5-34.6-34.6
		S393.2,28.2,412.3,28.2z"/>
	<path style="fill:#194F82;" d="M453.9,145H447c-5.5,0-10.5,3.2-12.8,8.2L412.3,201l-21.9-47.8c-2.3-5-7.3-8.2-12.8-8.2h-6.9
		c-29.9,0-54.1,24.2-54.1,54.1v143.6c0,7.8,6.3,14.1,14.1,14.1h8v137c0,7.8,6.3,14.1,14.1,14.1h119c7.8,0,14.1-6.3,14.1-14.1v-137h8
		c7.8,0,14.1-6.3,14.1-14.1V199.1C508,169.3,483.8,145,453.9,145z M457.6,479.8h-31.3v-75.2c0-7.8-6.3-14.1-14.1-14.1
		s-14.1,6.3-14.1,14.1v75.2h-31.3V356.9h90.7v122.9H457.6z M344.7,328.6V199.1c0-13.6,10.5-24.7,23.8-25.8l30.9,67.5
		c5,11,20.6,11,25.7,0l30.9-67.5c13.3,1.1,23.8,12.2,23.8,25.8v129.5H344.7z"/>
	<path style="fill:#194F82;" d="M98.8,323.1H14.1c-7.8,0-14.1,6.3-14.1,14.1v156.7c0,7.8,6.3,14.1,14.1,14.1h84.7
		c7.8,0,14.1-6.3,14.1-14.1V337.2C112.9,329.4,106.6,323.1,98.8,323.1z M84.7,479.8H28.2V351.3h56.4v128.5H84.7z"/>
	<path style="fill:#194F82;" d="M254,217.8h-84.7c-7.8,0-14.1,6.3-14.1,14.1v262c0,7.8,6.3,14.1,14.1,14.1H254
		c7.8,0,14.1-6.3,14.1-14.1v-262C268.1,224.1,261.8,217.8,254,217.8z M239.9,479.8h-56.4V246h56.4V479.8z"/>
</g>
</svg>